<svg width="27" height="36" viewBox="0 0 27 36" fill="none" xmlns="http://www.w3.org/2000/svg">
<path d="M9.78564 21.1111H7.39062V23.4608H9.78564V21.1111Z" fill="#ECECEC"/>
<path d="M7.39066 23.4626H4.99564V25.8124H7.39066V23.4626Z" fill="#ECECEC"/>
<path d="M24.3873 20.8499H19.5134V22.9383H24.3873V20.8499Z" fill="#ECECEC"/>
<path d="M24.4711 6.717V4.17483H19.5134V2.0864H12.1827V0H9.78765V2.08843H4.85191V4.17686H2.32117V9.2612H0V16.2193H2.32117V18.7614H9.78765V21.1112H12.1827V18.7614H14.6396V35.6451H17.0765V20.8478H19.5134V16.2172H22.1499V13.8898H24.4711V11.4995H27.0019V6.717H24.4711ZM7.50439 14.0052H5.18921V11.6555H7.50439V14.0052ZM12.1807 4.44019H9.79962V2.09045H12.1807V4.44019ZM17.0845 16.3043H14.7693V13.9546H17.0845V16.3043ZM21.9504 9.10928H19.6352V6.75954H21.9504V9.10928Z" fill="#ECECEC"/>
</svg>
