<?xml version="1.0" encoding="UTF-8"?>
<svg id="Capa_1" xmlns="http://www.w3.org/2000/svg" version="1.1" viewBox="0 0 27 36">
  <!-- Generator: Adobe Illustrator 30.0.0, SVG Export Plug-In . SVG Version: 2.1.1 Build 123)  -->
  <defs>
    <style>
      .st0 {
        fill: #24190b;
      }
    </style>
  </defs>
  <path class="st0" d="M9.8,21.1h-2.4v2.3h2.4v-2.3Z"/>
  <path class="st0" d="M7.4,23.5h-2.4v2.3h2.4v-2.3Z"/>
  <path class="st0" d="M24.4,20.8h-4.9v2.1h4.9v-2.1Z"/>
  <path class="st0" d="M24.5,6.7v-2.5h-5v-2.1h-7.3V0h-2.4v2.1h-4.9v2.1h-2.5v5.1H0v7h2.3v2.5h7.5v2.3h2.4v-2.3h2.5v16.9h2.4v-14.8h2.4v-4.6h2.6v-2.3h2.3v-2.4h2.5v-4.8h-2.5.1ZM7.5,14h-2.3v-2.3h2.3v2.3ZM12.2,4.4h-2.4v-2.3h2.4s0,2.3,0,2.3ZM17.1,16.3h-2.3v-2.3h2.3v2.3ZM22,9.1h-2.3v-2.3h2.3v2.3Z"/>
</svg>