<svg width="357" height="350" viewBox="0 0 357 350" fill="none" xmlns="http://www.w3.org/2000/svg">
<rect x="163.225" y="349.144" width="15.7115" height="14.8386" transform="rotate(-90 163.225 349.144)" fill="#61662B"/>
<rect x="178.064" y="295.027" width="15.7115" height="14.8386" transform="rotate(-90 178.064 295.027)" fill="#61662B"/>
<rect x="163.225" y="267.095" width="15.7115" height="14.8386" transform="rotate(-90 163.225 267.095)" fill="#61662B"/>
<rect x="261.858" y="186.792" width="14.8386" height="14.8386" fill="#61662B"/>
<rect x="214.724" y="203.376" width="14.8386" height="14.8386" fill="#61662B"/>
<path d="M318.594 156.242H275.824V141.403H304.629V126.564H334.306V141.403H318.594V156.242Z" fill="#61662B"/>
<rect x="178.064" y="127.438" width="24.4401" height="14.8386" fill="#61662B"/>
<path d="M148.387 157.988H163.225V171.953H178.063V157.988H207.741V203.377H192.902V234.8H163.225V249.637L148.387 249.638V219.088H163.225V188.538H148.387V171.081H133.548V142.276H148.387V157.988Z" fill="#61662B"/>
<rect x="163.225" y="157.988" width="15.7115" height="14.8386" transform="rotate(-90 163.225 157.988)" fill="#61662B"/>
<rect x="102.125" y="171.953" width="14.8386" height="14.8386" fill="#61662B"/>
<rect x="342.161" y="72.4473" width="14.8386" height="14.8386" fill="#61662B"/>
<rect x="302.01" y="87.2859" width="14.8386" height="14.8386" fill="#61662B"/>
<path d="M246.146 71.575H260.985V86.4128H275.824V126.564L260.985 126.565V126.564L246.146 126.565V101.252H231.309L231.308 71.574L246.146 71.575Z" fill="#61662B"/>
<path d="M133.548 142.276H102.125V127.437H117.836V97.7605H148.387V112.599H163.225V127.437H133.548V142.276Z" fill="#61662B"/>
<rect x="55.863" y="127.438" width="14.8386" height="14.8386" fill="#61662B"/>
<rect x="41.0244" y="112.599" width="14.8386" height="14.8386" fill="#61662B"/>
<rect x="272.333" y="41.0244" width="14.8386" height="14.8386" fill="#61662B"/>
<path d="M214.724 87.2859H199.885V72.447H185.046V57.6091H199.885V57.6082H214.724V87.2859Z" fill="#61662B"/>
<path d="M242.655 14.8386V29.6775H227.816V41.0242H212.979L212.978 14.8386H242.655Z" fill="#61662B"/>
<path d="M117.836 14.8386V38.406H147.514V53.2449H117.836V87.2859H102.998V70.7019H88.1592V53.2449H74.1934V38.406H88.1592V14.8386H117.836Z" fill="#61662B"/>
<path d="M46.2617 41.0242V70.7019H31.4229V55.863H16.584V41.0242H46.2617Z" fill="#61662B"/>
<rect y="20.0757" width="14.8386" height="14.8386" fill="#61662B"/>
<rect x="177.191" width="29.6773" height="14.8386" fill="#61662B"/>
<rect x="117.836" width="14.8386" height="14.8386" fill="#61662B"/>
</svg>
